<?xml version="1.0" encoding="UTF-8" standalone="no"?>
<!DOCTYPE svg PUBLIC "-//W3C//DTD SVG 1.1//EN"
 "http://www.w3.org/Graphics/SVG/1.1/DTD/svg11.dtd">
<!-- Generated by graphviz version 2.38.0 (20140413.2041)
 -->
<!-- Title: web_services Pages: 1 -->
<svg width="752pt" height="505pt"
 viewBox="0.00 0.00 752.36 504.74" xmlns="http://www.w3.org/2000/svg" xmlns:xlink="http://www.w3.org/1999/xlink">
<g id="graph0" class="graph" transform="scale(1 1) rotate(0) translate(312.428 237.056)">
<title>web_services</title>
<polygon fill="white" stroke="none" points="-312.428,267.68 -312.428,-237.056 439.933,-237.056 439.933,267.68 -312.428,267.68"/>
<!-- assay -->
<g id="node1" class="node"><title>assay</title>
<ellipse fill="none" stroke="black" cx="-93.6607" cy="-98.6816" rx="31.948" ry="18"/>
<text text-anchor="middle" x="-93.6607" y="-94.4816" font-family="Times,serif" font-size="14.00">Assay</text>
</g>
<!-- source -->
<g id="node2" class="node"><title>source</title>
<ellipse fill="none" stroke="black" cx="-31.4602" cy="-215.056" rx="34.8285" ry="18"/>
<text text-anchor="middle" x="-31.4602" y="-210.856" font-family="Times,serif" font-size="14.00">Source</text>
</g>
<!-- assay&#45;&gt;source -->
<g id="edge1" class="edge"><title>assay&#45;&gt;source</title>
<path fill="none" stroke="black" d="M-84.3487,-116.104C-74.0884,-135.301 -57.4698,-166.393 -45.5999,-188.601"/>
<polygon fill="black" stroke="black" points="-48.6365,-190.345 -40.8359,-197.514 -42.463,-187.045 -48.6365,-190.345"/>
</g>
<!-- cell_line -->
<g id="node3" class="node"><title>cell_line</title>
<ellipse fill="none" stroke="black" cx="-216.099" cy="-203.621" rx="43.0237" ry="18"/>
<text text-anchor="middle" x="-216.099" y="-199.421" font-family="Times,serif" font-size="14.00">Cell Line</text>
</g>
<!-- assay&#45;&gt;cell_line -->
<g id="edge2" class="edge"><title>assay&#45;&gt;cell_line</title>
<path fill="none" stroke="black" d="M-111.203,-113.717C-131.639,-131.232 -165.625,-160.361 -189.356,-180.7"/>
<polygon fill="black" stroke="black" points="-191.661,-178.066 -196.976,-187.231 -187.106,-183.381 -191.661,-178.066"/>
</g>
<!-- target -->
<g id="node4" class="node"><title>target</title>
<ellipse fill="none" stroke="black" cx="29.305" cy="-67.46" rx="32.3198" ry="18"/>
<text text-anchor="middle" x="29.305" y="-63.26" font-family="Times,serif" font-size="14.00">Target</text>
</g>
<!-- assay&#45;&gt;target -->
<g id="edge3" class="edge"><title>assay&#45;&gt;target</title>
<path fill="none" stroke="black" d="M-64.5196,-91.2825C-48.3712,-87.1824 -28.0617,-82.0257 -10.4717,-77.5595"/>
<polygon fill="black" stroke="black" points="-9.31228,-80.8762 -0.481187,-75.0228 -11.035,-74.0915 -9.31228,-80.8762"/>
</g>
<!-- document -->
<g id="node5" class="node"><title>document</title>
<ellipse fill="none" stroke="black" cx="-234.133" cy="-51.3408" rx="46.8891" ry="18"/>
<text text-anchor="middle" x="-234.133" y="-47.1408" font-family="Times,serif" font-size="14.00">Document</text>
</g>
<!-- assay&#45;&gt;document -->
<g id="edge4" class="edge"><title>assay&#45;&gt;document</title>
<path fill="none" stroke="black" d="M-121.079,-89.4414C-140.414,-82.9252 -166.75,-74.0496 -189.139,-66.5043"/>
<polygon fill="black" stroke="black" points="-188.19,-63.1309 -198.784,-63.2539 -190.426,-69.7643 -188.19,-63.1309"/>
</g>
<!-- target_component -->
<g id="node16" class="node"><title>target_component</title>
<ellipse fill="none" stroke="black" cx="115.099" cy="-192.911" rx="75.7776" ry="18"/>
<text text-anchor="middle" x="115.099" y="-188.711" font-family="Times,serif" font-size="14.00">Target Component</text>
</g>
<!-- target&#45;&gt;target_component -->
<g id="edge17" class="edge"><title>target&#45;&gt;target_component</title>
<path fill="none" stroke="black" d="M40.8755,-84.3789C55.2959,-105.465 80.1013,-141.737 97.0338,-166.496"/>
<polygon fill="black" stroke="black" points="94.348,-168.769 102.882,-175.048 100.126,-164.817 94.348,-168.769"/>
</g>
<!-- activity -->
<g id="node6" class="node"><title>activity</title>
<ellipse fill="none" stroke="black" cx="-74.9402" cy="12.7888" rx="39.18" ry="18"/>
<text text-anchor="middle" x="-74.9402" y="16.9888" font-family="Times,serif" font-size="14.00">Activity</text>
</g>
<!-- activity&#45;&gt;assay -->
<g id="edge5" class="edge"><title>activity&#45;&gt;assay</title>
<path fill="none" stroke="black" d="M-78.0315,-5.61825C-81.0029,-23.3115 -85.5343,-50.2931 -88.9541,-70.6561"/>
<polygon fill="black" stroke="black" points="-92.4223,-70.1755 -90.6269,-80.6171 -85.519,-71.3349 -92.4223,-70.1755"/>
</g>
<!-- activity&#45;&gt;document -->
<g id="edge6" class="edge"><title>activity&#45;&gt;document</title>
<path fill="none" stroke="black" d="M-104.51,0.876837C-129.203,-9.07056 -164.699,-23.3696 -192.304,-34.4903"/>
<polygon fill="black" stroke="black" points="-193.741,-31.2958 -201.709,-38.2789 -191.126,-37.7887 -193.741,-31.2958"/>
</g>
<!-- molecule -->
<g id="node7" class="node"><title>molecule</title>
<ellipse fill="none" stroke="black" cx="-47.3582" cy="108.515" rx="43.506" ry="18"/>
<text text-anchor="middle" x="-47.3582" y="112.715" font-family="Times,serif" font-size="14.00">Molecule</text>
</g>
<!-- activity&#45;&gt;molecule -->
<g id="edge7" class="edge"><title>activity&#45;&gt;molecule</title>
<path fill="none" stroke="black" d="M-69.7522,30.7942C-65.7071,44.8333 -60.0177,64.5786 -55.386,80.6537"/>
<polygon fill="black" stroke="black" points="-51.9285,80.0122 -52.5229,90.5904 -58.6548,81.9504 -51.9285,80.0122"/>
</g>
<!-- biotherapeutic -->
<g id="node8" class="node"><title>biotherapeutic</title>
<ellipse fill="none" stroke="black" cx="228.29" cy="227.215" rx="62.3321" ry="18"/>
<text text-anchor="middle" x="228.29" y="231.415" font-family="Times,serif" font-size="14.00">Biotherapeutic</text>
</g>
<!-- biotherapeutic&#45;&gt;molecule -->
<g id="edge8" class="edge"><title>biotherapeutic&#45;&gt;molecule</title>
<path fill="none" stroke="black" d="M193.379,212.181C141.993,190.053 46.2654,148.831 -7.70387,125.591"/>
<polygon fill="black" stroke="black" points="-9.15445,128.777 -16.9548,121.607 -6.38585,122.348 -9.15445,128.777"/>
</g>
<!-- molecule_forms -->
<g id="node9" class="node"><title>molecule_forms</title>
<ellipse fill="none" stroke="black" cx="-240.109" cy="225.158" rx="68.1387" ry="18"/>
<text text-anchor="middle" x="-240.109" y="229.358" font-family="Times,serif" font-size="14.00">Molecule Forms</text>
</g>
<!-- molecule_forms&#45;&gt;molecule -->
<g id="edge9" class="edge"><title>molecule_forms&#45;&gt;molecule</title>
<path fill="none" stroke="black" d="M-212.492,208.446C-177.849,187.482 -118.474,151.551 -81.1544,128.967"/>
<polygon fill="black" stroke="black" points="-82.5375,125.713 -72.17,123.53 -78.9134,131.702 -82.5375,125.713"/>
</g>
<!-- atc -->
<g id="node10" class="node"><title>atc</title>
<ellipse fill="none" stroke="black" cx="34.728" cy="245.68" rx="27" ry="18"/>
<text text-anchor="middle" x="34.728" y="249.88" font-family="Times,serif" font-size="14.00">ATC</text>
</g>
<!-- atc&#45;&gt;molecule -->
<g id="edge10" class="edge"><title>atc&#45;&gt;molecule</title>
<path fill="none" stroke="black" d="M24.6627,228.861C10.662,205.466 -14.8363,162.858 -31.4325,135.127"/>
<polygon fill="black" stroke="black" points="-34.558,136.72 -36.69,126.341 -28.5515,133.125 -34.558,136.72"/>
</g>
<!-- similarity -->
<g id="node11" class="node"><title>similarity</title>
<ellipse fill="none" stroke="black" cx="-106.463" cy="230.697" rx="45.4614" ry="18"/>
<text text-anchor="middle" x="-106.463" y="234.897" font-family="Times,serif" font-size="14.00">Similarity</text>
</g>
<!-- similarity&#45;&gt;molecule -->
<g id="edge11" class="edge"><title>similarity&#45;&gt;molecule</title>
<path fill="none" stroke="black" stroke-dasharray="5,2" d="M-97.8687,212.931C-88.0198,192.571 -71.7724,158.984 -60.3704,135.414"/>
<polygon fill="black" stroke="black" points="-63.4684,133.781 -55.9629,126.303 -57.1669,136.829 -63.4684,133.781"/>
</g>
<!-- substructure -->
<g id="node12" class="node"><title>substructure</title>
<ellipse fill="none" stroke="black" cx="-219.468" cy="79.0492" rx="54.6162" ry="18"/>
<text text-anchor="middle" x="-219.468" y="83.2492" font-family="Times,serif" font-size="14.00">Substructure</text>
</g>
<!-- substructure&#45;&gt;molecule -->
<g id="edge12" class="edge"><title>substructure&#45;&gt;molecule</title>
<path fill="none" stroke="black" stroke-dasharray="5,2" d="M-170.609,87.4141C-147.754,91.3269 -120.565,95.9817 -97.5465,99.9226"/>
<polygon fill="black" stroke="black" points="-96.8948,96.4832 -87.6288,101.621 -98.0761,103.383 -96.8948,96.4832"/>
</g>
<!-- image -->
<g id="node13" class="node"><title>image</title>
<ellipse fill="none" stroke="black" cx="89.7459" cy="124.891" rx="32.4063" ry="18"/>
<text text-anchor="middle" x="89.7459" y="129.091" font-family="Times,serif" font-size="14.00">Image</text>
</g>
<!-- image&#45;&gt;molecule -->
<g id="edge13" class="edge"><title>image&#45;&gt;molecule</title>
<path fill="none" stroke="black" stroke-dasharray="5,2" d="M57.9468,121.093C42.135,119.204 22.6195,116.873 4.702,114.733"/>
<polygon fill="black" stroke="black" points="4.17691,118.195 -5.33739,113.534 5.00716,111.245 4.17691,118.195"/>
</g>
<!-- mechanism -->
<g id="node14" class="node"><title>mechanism</title>
<ellipse fill="none" stroke="black" cx="114.524" cy="-1.21121" rx="51.2329" ry="18"/>
<text text-anchor="middle" x="114.524" y="2.98879" font-family="Times,serif" font-size="14.00">Mechanism</text>
</g>
<!-- mechanism&#45;&gt;target -->
<g id="edge16" class="edge"><title>mechanism&#45;&gt;target</title>
<path fill="none" stroke="black" d="M93.0195,-17.9286C81.9099,-26.5651 68.2395,-37.1924 56.4135,-46.3859"/>
<polygon fill="black" stroke="black" points="53.9382,-43.877 48.1914,-52.7778 58.2345,-49.4035 53.9382,-43.877"/>
</g>
<!-- mechanism&#45;&gt;molecule -->
<g id="edge14" class="edge"><title>mechanism&#45;&gt;molecule</title>
<path fill="none" stroke="black" d="M90.6376,14.9793C62.2594,34.2144 14.8434,66.3538 -16.3444,87.4934"/>
<polygon fill="black" stroke="black" points="-14.4399,90.4307 -24.6814,93.1443 -18.3675,84.6363 -14.4399,90.4307"/>
</g>
<!-- binding_site -->
<g id="node15" class="node"><title>binding_site</title>
<ellipse fill="none" stroke="black" cx="252.551" cy="47.3773" rx="54.6493" ry="18"/>
<text text-anchor="middle" x="252.551" y="51.5773" font-family="Times,serif" font-size="14.00">Binding Site</text>
</g>
<!-- mechanism&#45;&gt;binding_site -->
<g id="edge15" class="edge"><title>mechanism&#45;&gt;binding_site</title>
<path fill="none" stroke="black" d="M150.789,11.5548C167.502,17.4383 187.552,24.4961 205.419,30.7857"/>
<polygon fill="black" stroke="black" points="206.815,27.5665 215.085,34.1885 204.49,34.1694 206.815,27.5665"/>
</g>
<!-- protein_class -->
<g id="node17" class="node"><title>protein_class</title>
<ellipse fill="none" stroke="black" cx="253.608" cy="-161.269" rx="57.0546" ry="18"/>
<text text-anchor="middle" x="253.608" y="-157.069" font-family="Times,serif" font-size="14.00">Protein Class</text>
</g>
<!-- target_component&#45;&gt;protein_class -->
<g id="edge18" class="edge"><title>target_component&#45;&gt;protein_class</title>
<path fill="none" stroke="black" d="M169.841,-180.405C178.948,-178.325 188.406,-176.164 197.545,-174.076"/>
<polygon fill="black" stroke="black" points="198.337,-177.486 207.306,-171.847 196.777,-170.662 198.337,-177.486"/>
</g>
<!-- chembl_id_lookup -->
<g id="node18" class="node"><title>chembl_id_lookup</title>
<ellipse fill="none" stroke="black" cx="350" cy="-62" rx="85.8653" ry="18"/>
<text text-anchor="middle" x="350" y="-57.8" font-family="Times,serif" font-size="14.00">ChEMBL ID Lookup</text>
</g>
</g>
</svg>
